<?xml version="1.0" encoding="UTF-8"?>
<svg width="229px" height="46px" viewBox="0 0 229 46" version="1.1" xmlns="http://www.w3.org/2000/svg" xmlns:xlink="http://www.w3.org/1999/xlink">
    <!-- Generator: Sketch 46.2 (44496) - http://www.bohemiancoding.com/sketch -->
    <title>cal</title>
    <desc>Created with Sketch.</desc>
    <defs></defs>
    <g id="Home-Redesign" stroke="none" stroke-width="1" fill="none" fill-rule="evenodd">
        <g transform="translate(-281.000000, -1306.000000)" id="cal">
            <g transform="translate(281.000000, 1304.000000)">
                <path d="M60.6094261,20.2958613 C62.3963599,20.2958613 63.5492204,19.5897343 64.6156164,18.537749 L64.1112399,18.0477833 C63.0880762,19.0565363 62.093734,19.6185558 60.6382476,19.6185558 C58.2316512,19.6185558 56.3726636,17.6298714 56.3726636,15.0791675 L56.3726636,15.0503459 C56.3726636,12.5140528 58.2028297,10.5397791 60.6238368,10.5397791 C62.1369663,10.5397791 63.1457192,11.1738524 64.0247754,12.0240871 L64.5579734,11.4764783 C63.5203989,10.5253684 62.4395922,9.86247357 60.6382476,9.86247357 C57.7272748,9.86247357 55.5944828,12.2258377 55.5944828,15.0791675 L55.5944828,15.107989 C55.5944828,18.004551 57.7272748,20.2958613 60.6094261,20.2958613 Z M69.4864521,20.2958613 C67.3104279,20.2958613 65.7252447,18.537749 65.7252447,16.4770108 L65.7252447,16.4481893 C65.7252447,14.3874511 67.3248387,12.6005173 69.5152737,12.6005173 C71.6912979,12.6005173 73.2764811,14.3586296 73.2764811,16.4193678 L73.2764811,16.4481893 C73.2764811,18.5089275 71.6768871,20.2958613 69.4864521,20.2958613 Z M69.5152737,19.6329665 C71.2589752,19.6329665 72.512711,18.2063016 72.512711,16.4770108 L72.512711,16.4481893 C72.512711,14.6756663 71.1869214,13.2634121 69.4864521,13.2634121 C67.7427506,13.2634121 66.4890148,14.690077 66.4890148,16.4193678 L66.4890148,16.4481893 C66.4890148,18.2207124 67.8148044,19.6329665 69.5152737,19.6329665 Z M75.5533807,20.1229323 L76.2595077,20.1229323 L76.2595077,9.60307995 L75.5533807,9.60307995 L75.5533807,20.1229323 Z M79.1416591,20.1229323 L79.8477861,20.1229323 L79.8477861,9.60307995 L79.1416591,9.60307995 L79.1416591,20.1229323 Z M85.7273748,20.2958613 C83.7963334,20.2958613 82.1246857,18.7539104 82.1246857,16.4626001 L82.1246857,16.4337786 C82.1246857,14.3009866 83.6234044,12.6005173 85.6120888,12.6005173 C87.672827,12.6005173 88.9842058,14.2721651 88.9842058,16.4481893 C88.9842058,16.5778861 88.9842058,16.6211184 88.969795,16.7364045 L82.874045,16.7364045 C83.0037418,18.5665705 84.3151207,19.6329665 85.7561963,19.6329665 C86.8946461,19.6329665 87.672827,19.1285901 88.2780787,18.480106 L88.7680445,18.9124287 C88.0186851,19.7194311 87.139629,20.2958613 85.7273748,20.2958613 Z M82.874045,16.1023312 L88.2204357,16.1023312 C88.1195604,14.6180232 87.2693258,13.2490014 85.5832672,13.2490014 C84.1277808,13.2490014 83.0037418,14.4739157 82.874045,16.1023312 Z M94.2729535,22.4574748 C93.0480392,22.4574748 91.9095894,22.0827952 90.9008364,21.3334358 L91.3187484,20.7570055 C92.1978045,21.4343111 93.2065575,21.79458 94.2873642,21.79458 C95.9734227,21.79458 97.1695155,20.8290593 97.1695155,18.9412502 L97.1695155,17.8748542 C96.5354423,18.7827319 95.5555108,19.5753235 94.1000244,19.5753235 C92.3275013,19.5753235 90.569389,18.2207124 90.569389,16.1167419 L90.569389,16.0879204 C90.569389,13.9695392 92.3275013,12.6005173 94.1000244,12.6005173 C95.5699216,12.6005173 96.5642638,13.3786982 97.1695155,14.2433436 L97.1695155,12.7734464 L97.8756426,12.7734464 L97.8756426,18.9844825 C97.8756426,20.0508785 97.5297845,20.8867024 96.9389434,21.4775434 C96.3048701,22.1116167 95.3537602,22.4574748 94.2729535,22.4574748 Z M94.1720782,18.8980179 C95.6996184,18.8980179 97.2127478,17.7739789 97.2127478,16.1023312 L97.2127478,16.0735097 C97.2127478,14.3730404 95.6996184,13.2778229 94.1720782,13.2778229 C92.6301272,13.2778229 91.3331591,14.3442189 91.3331591,16.0590989 L91.3331591,16.0879204 C91.3331591,17.7451574 92.6589487,18.8980179 94.1720782,18.8980179 Z M103.654356,20.2958613 C101.723315,20.2958613 100.051667,18.7539104 100.051667,16.4626001 L100.051667,16.4337786 C100.051667,14.3009866 101.550386,12.6005173 103.53907,12.6005173 C105.599808,12.6005173 106.911187,14.2721651 106.911187,16.4481893 C106.911187,16.5778861 106.911187,16.6211184 106.896776,16.7364045 L100.801026,16.7364045 C100.930723,18.5665705 102.242102,19.6329665 103.683178,19.6329665 C104.821627,19.6329665 105.599808,19.1285901 106.20506,18.480106 L106.695026,18.9124287 C105.945666,19.7194311 105.06661,20.2958613 103.654356,20.2958613 Z M100.801026,16.1023312 L106.147417,16.1023312 C106.046542,14.6180232 105.196307,13.2490014 103.510248,13.2490014 C102.054762,13.2490014 100.930723,14.4739157 100.801026,16.1023312 Z M116.551983,20.2958613 C114.375959,20.2958613 112.790776,18.537749 112.790776,16.4770108 L112.790776,16.4481893 C112.790776,14.3874511 114.39037,12.6005173 116.580805,12.6005173 C118.756829,12.6005173 120.342012,14.3586296 120.342012,16.4193678 L120.342012,16.4481893 C120.342012,18.5089275 118.742418,20.2958613 116.551983,20.2958613 Z M116.580805,19.6329665 C118.324506,19.6329665 119.578242,18.2063016 119.578242,16.4770108 L119.578242,16.4481893 C119.578242,14.6756663 118.252452,13.2634121 116.551983,13.2634121 C114.808282,13.2634121 113.554546,14.690077 113.554546,16.4193678 L113.554546,16.4481893 C113.554546,18.2207124 114.880335,19.6329665 116.580805,19.6329665 Z M122.950359,20.1229323 L123.656486,20.1229323 L123.656486,13.4219304 L126.221601,13.4219304 L126.221601,12.7734464 L123.656486,12.7734464 L123.656486,12.0673193 C123.656486,10.8135835 124.132041,10.2083317 125.140794,10.2083317 C125.515474,10.2083317 125.8181,10.2659748 126.236012,10.3956716 L126.236012,9.73277676 C125.904564,9.61749071 125.587528,9.55984768 125.140794,9.55984768 C124.49231,9.55984768 123.973523,9.76159827 123.598843,10.1362779 C123.180931,10.5541899 122.950359,11.2170847 122.950359,12.0529086 L122.950359,12.7734464 L121.883963,12.7734464 L121.883963,13.4219304 L122.950359,13.4219304 L122.950359,20.1229323 Z M131.35183,20.1229323 L136.049737,9.96334887 L136.770275,9.96334887 L141.468181,20.1229323 L140.646768,20.1229323 L139.364211,17.298424 L133.412568,17.298424 L132.130011,20.1229323 L131.35183,20.1229323 Z M133.729605,16.6211184 L139.047174,16.6211184 L136.395595,10.784762 L133.729605,16.6211184 Z M143.442455,20.1229323 L144.148582,20.1229323 L144.148582,17.1110841 C144.148582,14.7188985 145.63289,13.4363412 147.333359,13.4363412 L147.405413,13.4363412 L147.405413,12.6581603 C145.949927,12.6005173 144.725012,13.5516273 144.148582,14.8630061 L144.148582,12.7734464 L143.442455,12.7734464 L143.442455,20.1229323 Z M151.656586,20.2526291 C152.11773,20.2526291 152.477999,20.1661645 152.852679,19.9932354 L152.852679,19.3303406 C152.434767,19.5176805 152.132141,19.5897343 151.771872,19.5897343 C150.921638,19.5897343 150.301975,19.2150546 150.301975,18.1630694 L150.301975,13.4219304 L152.8815,13.4219304 L152.8815,12.7734464 L150.301975,12.7734464 L150.301975,10.4244931 L149.595848,10.4244931 L149.595848,12.7734464 L148.529452,12.7734464 L148.529452,13.4219304 L149.595848,13.4219304 L149.595848,18.2351231 C149.595848,19.6329665 150.518136,20.2526291 151.656586,20.2526291 Z M157.348835,20.2670398 C158.761089,20.2670398 159.885128,19.4312159 159.885128,18.1198371 L159.885128,18.0910156 C159.885128,16.7940475 158.645803,16.3617248 157.464121,16.0302774 C156.412136,15.7276515 155.417794,15.4250256 155.417794,14.6036125 L155.417794,14.574791 C155.417794,13.8398424 156.080688,13.2922336 157.089441,13.2922336 C157.867622,13.2922336 158.674625,13.5804488 159.35193,14.0271822 L159.72661,13.4363412 C158.991661,12.9463755 157.997319,12.6293388 157.118263,12.6293388 C155.691598,12.6293388 154.697256,13.4795735 154.697256,14.6612555 L154.697256,14.690077 C154.697256,16.0014559 156.023045,16.3617248 157.219138,16.7075829 C158.242302,16.9957981 159.16459,17.3128347 159.16459,18.1774801 L159.16459,18.2063016 C159.16459,19.0565363 158.38641,19.604145 157.392067,19.604145 C156.455368,19.604145 155.561901,19.2582869 154.754899,18.6386243 L154.336987,19.2006438 C155.115168,19.8347171 156.282439,20.2670398 157.348835,20.2670398 Z M174.079723,20.3246829 L172.336022,18.5233383 C171.384912,19.6329665 170.275284,20.2670398 168.920673,20.2670398 C167.14815,20.2670398 165.82236,19.1141793 165.82236,17.471353 L165.82236,17.4425315 C165.82236,16.0879204 166.787881,15.0935782 168.430707,14.4883264 C167.666937,13.6380918 167.306668,13.0184293 167.306668,12.1826054 L167.306668,12.1537839 C167.306668,10.8568158 168.358653,9.86247357 169.82855,9.86247357 C171.139929,9.86247357 172.148682,10.842405 172.148682,12.0529086 L172.148682,12.0817301 C172.148682,13.3354659 171.211983,14.156879 169.670032,14.690077 L172.321611,17.41371 C172.811577,16.7219937 173.2439,15.8861698 173.63299,14.9638814 L174.310296,15.2376858 C173.849151,16.2752603 173.359186,17.1831379 172.811577,17.9180865 L174.670564,19.8347171 L174.079723,20.3246829 Z M169.223298,14.2289328 C170.664374,13.7677886 171.399323,13.0616615 171.399323,12.1105516 L171.399323,12.0817301 C171.399323,11.1882632 170.707606,10.4965469 169.799729,10.4965469 C168.776565,10.4965469 168.056027,11.2170847 168.056027,12.1249624 L168.056027,12.1537839 C168.056027,12.7878572 168.329832,13.2778229 169.223298,14.2289328 Z M168.935083,19.6185558 C170.059122,19.6185558 171.024643,19.013304 171.860467,18.0333726 L168.87744,14.9494706 C167.277846,15.4970794 166.571719,16.4337786 166.571719,17.41371 L166.571719,17.4425315 C166.571719,18.6674458 167.551651,19.6185558 168.935083,19.6185558 Z M180.968065,20.1229323 L187.640245,20.1229323 L187.640245,19.4312159 L181.717424,19.4312159 L181.717424,10.0354026 L180.968065,10.0354026 L180.968065,20.1229323 Z M192.539903,20.2958613 C190.608861,20.2958613 188.937213,18.7539104 188.937213,16.4626001 L188.937213,16.4337786 C188.937213,14.3009866 190.435932,12.6005173 192.424617,12.6005173 C194.485355,12.6005173 195.796734,14.2721651 195.796734,16.4481893 C195.796734,16.5778861 195.796734,16.6211184 195.782323,16.7364045 L189.686573,16.7364045 C189.81627,18.5665705 191.127648,19.6329665 192.568724,19.6329665 C193.707174,19.6329665 194.485355,19.1285901 195.090607,18.480106 L195.580572,18.9124287 C194.831213,19.7194311 193.952157,20.2958613 192.539903,20.2958613 Z M189.686573,16.1023312 L195.032964,16.1023312 C194.932088,14.6180232 194.081854,13.2490014 192.395795,13.2490014 C190.940309,13.2490014 189.81627,14.4739157 189.686573,16.1023312 Z M200.3073,20.2526291 C200.768445,20.2526291 201.128714,20.1661645 201.503393,19.9932354 L201.503393,19.3303406 C201.085481,19.5176805 200.782855,19.5897343 200.422586,19.5897343 C199.572352,19.5897343 198.952689,19.2150546 198.952689,18.1630694 L198.952689,13.4219304 L201.532215,13.4219304 L201.532215,12.7734464 L198.952689,12.7734464 L198.952689,10.4244931 L198.246562,10.4244931 L198.246562,12.7734464 L197.180166,12.7734464 L197.180166,13.4219304 L198.246562,13.4219304 L198.246562,18.2351231 C198.246562,19.6329665 199.168851,20.2526291 200.3073,20.2526291 Z M206.071603,20.2526291 C206.532747,20.2526291 206.893016,20.1661645 207.267696,19.9932354 L207.267696,19.3303406 C206.849784,19.5176805 206.547158,19.5897343 206.186889,19.5897343 C205.336654,19.5897343 204.716992,19.2150546 204.716992,18.1630694 L204.716992,13.4219304 L207.296517,13.4219304 L207.296517,12.7734464 L204.716992,12.7734464 L204.716992,10.4244931 L204.010865,10.4244931 L204.010865,12.7734464 L202.944469,12.7734464 L202.944469,13.4219304 L204.010865,13.4219304 L204.010865,18.2351231 C204.010865,19.6329665 204.933153,20.2526291 206.071603,20.2526291 Z M212.052067,20.2958613 C210.121026,20.2958613 208.449378,18.7539104 208.449378,16.4626001 L208.449378,16.4337786 C208.449378,14.3009866 209.948097,12.6005173 211.936781,12.6005173 C213.997519,12.6005173 215.308898,14.2721651 215.308898,16.4481893 C215.308898,16.5778861 215.308898,16.6211184 215.294487,16.7364045 L209.198737,16.7364045 C209.328434,18.5665705 210.639813,19.6329665 212.080889,19.6329665 C213.219338,19.6329665 213.997519,19.1285901 214.602771,18.480106 L215.092737,18.9124287 C214.343377,19.7194311 213.464321,20.2958613 212.052067,20.2958613 Z M209.198737,16.1023312 L214.545128,16.1023312 C214.444253,14.6180232 213.594018,13.2490014 211.907959,13.2490014 C210.452473,13.2490014 209.328434,14.4739157 209.198737,16.1023312 Z M217.369636,20.1229323 L218.075763,20.1229323 L218.075763,17.1110841 C218.075763,14.7188985 219.560071,13.4363412 221.26054,13.4363412 L221.332594,13.4363412 L221.332594,12.6581603 C219.877108,12.6005173 218.652194,13.5516273 218.075763,14.8630061 L218.075763,12.7734464 L217.369636,12.7734464 L217.369636,20.1229323 Z M225.511714,20.2670398 C226.923968,20.2670398 228.048007,19.4312159 228.048007,18.1198371 L228.048007,18.0910156 C228.048007,16.7940475 226.808682,16.3617248 225.627,16.0302774 C224.575015,15.7276515 223.580672,15.4250256 223.580672,14.6036125 L223.580672,14.574791 C223.580672,13.8398424 224.243567,13.2922336 225.25232,13.2922336 C226.030501,13.2922336 226.837503,13.5804488 227.514809,14.0271822 L227.889489,13.4363412 C227.15454,12.9463755 226.160198,12.6293388 225.281142,12.6293388 C223.854477,12.6293388 222.860134,13.4795735 222.860134,14.6612555 L222.860134,14.690077 C222.860134,16.0014559 224.185924,16.3617248 225.382017,16.7075829 C226.405181,16.9957981 227.327469,17.3128347 227.327469,18.1774801 L227.327469,18.2063016 C227.327469,19.0565363 226.549288,19.604145 225.554946,19.604145 C224.618247,19.604145 223.72478,19.2582869 222.917778,18.6386243 L222.499866,19.2006438 C223.278046,19.8347171 224.445318,20.2670398 225.511714,20.2670398 Z" id="College-of-Arts-&amp;-Letters" fill="#FFFFFE"></path>
                <g id="Group-3" transform="translate(46.609756, 0.000000)"></g>
                <path d="M152.686151,28.9628244 L152.686151,33.9689512 C152.686151,34.8048195 152.954576,35.9887073 154.430073,35.9887073 C155.781278,35.9887073 156.270083,35.0562732 156.270083,33.8702341 L156.246898,28.9628244 C156.246898,28.6869902 156.108263,28.5172829 155.939751,28.4240634 L157.257732,28.4240634 C157.083961,28.5172829 156.963015,28.6869902 156.963015,28.9628244 L156.9274,33.8492 C156.9274,35.8789951 155.783429,36.6680146 154.240527,36.6680146 C152.915854,36.6680146 151.225234,36.0463122 151.225234,33.9299902 L151.225234,28.9618683 C151.225234,28.6857951 151.045727,28.5160878 150.860483,28.4231073 L153.038951,28.4231073 C152.854663,28.5172829 152.686151,28.6869902 152.686151,28.9628244" id="Fill-4" fill="#FFFFFE"></path>
                <path d="M164.671551,28.9628244 C164.671551,28.6869902 164.560883,28.5172829 164.376595,28.4240634 L165.63721,28.4240634 C165.462961,28.5172829 165.340102,28.6869902 165.340102,28.9628244 L165.340102,36.8845707 C165.340102,36.8845707 159.898234,30.1235268 159.898234,30.0238537 L159.898234,36.0164341 C159.898234,36.2736244 160.021332,36.4442878 160.217571,36.5506537 L158.955044,36.5506537 C159.126663,36.4442878 159.254302,36.2736244 159.254302,36.0164341 L159.254302,29.6289854 C159.254302,29.1636049 159.265298,29.1514146 159.046829,28.8786878 C158.936161,28.7345561 158.778644,28.5693902 158.539141,28.4240634 L160.485756,28.4240634 L164.671551,33.6785366 L164.671551,28.9628244" id="Fill-5" fill="#FFFFFE"></path>
                <path d="M169.288546,28.4240634 C169.095654,28.5172829 168.993829,28.6869902 168.993829,28.9628244 L168.993829,36.0164341 C168.993829,36.2736244 169.095654,36.4442878 169.288546,36.5506537 L167.237717,36.5506537 C167.41842,36.4442878 167.532673,36.2736244 167.532673,36.0164341 L167.532673,28.9628244 C167.532673,28.6869902 167.418659,28.5172829 167.237717,28.4240634 L169.288546,28.4240634" id="Fill-6" fill="#FFFFFE"></path>
                <path d="M176.181293,29.0204293 C176.285507,28.7101756 176.238898,28.5407073 175.94418,28.4240634 L177.329805,28.4240634 C177.037,28.6269951 177.010707,28.7101756 176.8998,28.9974829 C176.707863,29.4628634 173.973185,36.8001951 173.973185,36.8001951 C173.973185,36.8001951 171.013585,29.4384829 170.797268,28.9974829 C170.66198,28.7555902 170.524541,28.5693902 170.182976,28.4240634 L172.69058,28.4240634 C172.398015,28.5407073 172.375785,28.792161 172.452273,29.0804244 C172.475459,29.1858341 174.369966,34.1020878 174.369966,34.1020878 C174.369966,34.1020878 176.173644,29.1048049 176.181293,29.0204293" id="Fill-7" fill="#FFFFFE"></path>
                <path d="M183.017629,29.4762488 C182.802507,29.1636049 182.567546,29.0715805 182.132761,29.0460049 C181.795976,29.0204293 180.209571,29.0204293 180.209571,29.0204293 L180.209571,31.7684927 L181.92242,31.7684927 C182.079937,31.7684927 182.27259,31.575839 182.329239,31.4338585 L182.329239,32.703078 C182.27259,32.5336098 182.079937,32.3529073 181.92242,32.3529073 L180.209571,32.3529073 L180.209571,35.8668049 C180.43258,35.9009854 181.124317,35.9509415 181.680766,35.9289512 C182.667459,35.9009854 183.119454,35.9289512 183.543005,35.1738732 L183.301351,36.5494585 L178.428122,36.5494585 C178.620059,36.4277951 178.769688,36.2970488 178.769688,36.015239 L178.769688,28.9618683 C178.769688,28.6857951 178.608824,28.5160878 178.428122,28.4231073 L182.982015,28.4231073 L183.017629,29.4762488" id="Fill-8" fill="#FFFFFE"></path>
                <path d="M186.34198,29.0204293 L186.34198,32.1365902 C186.34198,32.1365902 186.661317,32.1655122 186.853015,32.1655122 C187.624585,32.1655122 188.442766,31.7065854 188.442766,30.5035756 C188.442766,29.9516683 188.121278,28.9974829 186.999537,28.9974829 C186.661317,28.9974829 186.34198,29.0204293 186.34198,29.0204293 Z M188.023756,32.4291561 C188.79198,32.5080341 189.133068,33.0611366 189.302776,33.3238244 C189.302776,33.3238244 190.661868,35.5928829 191.058649,36.0718878 C191.27401,36.358 191.784805,36.5506537 191.784805,36.5506537 L190.313849,36.5752732 C189.883844,36.5752732 189.511444,36.2980049 189.302776,36.0164341 C188.79198,35.2615951 188.296483,34.3858098 187.886317,33.7174976 C187.591361,33.2396878 187.329868,32.7231561 186.846322,32.7231561 C186.707927,32.7231561 186.343176,32.7496878 186.343176,32.7496878 L186.343176,36.015239 C186.343176,36.2724293 186.46962,36.4430927 186.662512,36.5494585 L184.611444,36.5494585 C184.79119,36.4430927 184.906639,36.2724293 184.906639,36.015239 L184.906639,28.9618683 C184.906639,28.6857951 184.79119,28.5160878 184.611444,28.4231073 L187.061444,28.4231073 C189.40699,28.4231073 189.936907,29.6280293 189.936907,30.429478 C189.936907,31.7197317 188.82401,32.3650976 188.023756,32.4291561 L188.023756,32.4291561 Z" id="Fill-9" fill="#FFFFFE"></path>
                <path d="M197.049317,34.1563463 C197.049317,35.6516829 195.801132,36.6680146 194.406424,36.6680146 C193.377663,36.6680146 192.628561,36.2970488 192.233693,36.0941171 L192.176088,34.074361 C192.386907,34.9245707 193.074102,36.0463122 194.249146,36.0463122 C195.370888,36.0463122 195.712454,35.2006439 195.712454,34.613122 C195.712454,33.4679561 194.725761,33.310678 193.692698,32.7231561 C192.6484,32.1146 192.194971,31.4704293 192.194971,30.5614195 C192.194971,28.9386829 193.639395,28.2954683 194.671263,28.2954683 C195.051551,28.2954683 195.800893,28.3743463 196.380766,28.7345561 L196.433829,30.5047707 C196.276551,29.8696829 195.631424,28.909522 194.545059,28.909522 C193.680507,28.909522 193.341332,29.547 193.341332,30.0616195 C193.341332,30.791839 193.828941,31.0645659 194.893078,31.5767951 C195.950761,32.1064732 197.049317,32.4956049 197.049317,34.1563463" id="Fill-10" fill="#FFFFFE"></path>
                <path d="M200.229537,28.4240634 C200.036644,28.5172829 199.932429,28.6869902 199.932429,28.9628244 L199.932429,36.0164341 C199.932429,36.2736244 200.036644,36.4442878 200.229537,36.5506537 L198.178707,36.5506537 C198.355107,36.4442878 198.469122,36.2736244 198.469122,36.0164341 L198.469122,28.9628244 C198.469122,28.6869902 198.355107,28.5172829 198.178707,28.4240634 L200.229537,28.4240634" id="Fill-11" fill="#FFFFFE"></path>
                <path d="M205.174712,29.0204293 L205.174712,36.015239 C205.174712,36.2724293 205.300917,36.4430927 205.473971,36.5494585 L203.442024,36.5494585 C203.621771,36.4430927 203.73698,36.2724293 203.73698,36.015239 L203.73698,29.0204293 C202.895615,29.0204293 201.921112,29.1048049 201.921112,29.1048049 C201.648385,29.1048049 201.456688,29.3772927 201.352712,29.5792683 L201.352712,28.4240634 L207.565912,28.4240634 L207.565912,29.5792683 C207.466,29.3784878 207.308722,29.1301415 207.031454,29.1048049 C207.03241,29.1048049 206.006995,29.0204293 205.174712,29.0204293" id="Fill-12" fill="#FFFFFE"></path>
                <path d="M214.971605,28.4240634 C214.621434,28.5407073 214.353249,28.8786878 214.222263,29.1514146 L212.406634,32.7838683 L212.406634,36.0164341 C212.406634,36.2736244 212.625102,36.4442878 212.805805,36.5506537 L210.536507,36.5506537 C210.708366,36.4442878 210.92779,36.2980049 210.92779,36.0164341 L210.92779,32.8350195 L208.70319,28.998439 C208.541371,28.7101756 208.419229,28.5882732 208.115668,28.4252585 L210.674185,28.4252585 C210.393571,28.5416634 210.197332,28.6038098 210.488941,29.1648 L212.091839,32.1076683 L213.585024,29.0216244 C213.751385,28.7567854 213.662707,28.5062878 213.350063,28.4252585 L214.971605,28.4252585 L214.971605,28.4240634" id="Fill-13" fill="#FFFFFE"></path>
                <path d="M61.7125122,28.5306683 L63.6055854,28.5306683 C63.425122,28.6224537 63.3154098,28.7878585 63.3154098,29.0603463 L63.3154098,36.0219317 C63.3154098,36.2836634 63.4239268,36.4485902 63.6055854,36.5530439 L61.6037561,36.5530439 C61.7823073,36.4485902 61.8929756,36.2824683 61.8929756,36.0219317 L61.8929756,30.085761 C61.8929756,29.9461707 61.9164,29.8154244 61.9164,29.8154244 L61.8131415,30.085761 L59.1284195,36.720361 L56.4193171,30.2753073 L56.340439,29.9595561 C56.340439,29.9595561 56.340439,30.1689415 56.340439,30.2753073 L56.340439,36.0207366 C56.340439,36.2824683 56.4635366,36.4476341 56.6552341,36.5518488 L55.4092,36.5518488 C55.5801024,36.4476341 55.7008098,36.2812732 55.7008098,36.0207366 L55.7008098,29.0591512 C55.7008098,28.8354244 55.5224976,28.6214976 55.3417951,28.5294732 L57.3161366,28.5294732 L59.5507756,33.9445707 L61.7125122,28.5306683" id="Fill-14" fill="#FFFFFE"></path>
                <path d="M67.443361,28.5306683 C67.2538146,28.6224537 67.1529463,28.7878585 67.1529463,29.0603463 L67.1529463,36.0219317 C67.1529463,36.2836634 67.2526195,36.4485902 67.443361,36.5530439 L65.4181073,36.5530439 C65.5988098,36.4485902 65.7097171,36.2824683 65.7097171,36.0219317 L65.7097171,29.0603463 C65.7097171,28.7878585 65.5976146,28.6224537 65.4181073,28.5306683 L67.443361,28.5306683" id="Fill-15" fill="#FFFFFE"></path>
                <path d="M76.0322244,30.840839 C75.3481366,29.2011317 74.0368488,29.0350098 73.5014341,29.0350098 C71.5870878,29.0350098 70.5028732,30.5148098 70.5028732,32.4105122 C70.5028732,34.0287073 71.2722927,36.0207366 73.577922,36.0207366 C74.1087951,36.0207366 75.371561,35.8335805 76.1087122,34.2151463 C76.1318976,34.1694927 76.009039,35.9143707 76.009039,35.9143707 C75.0787561,36.4686683 74.0856098,36.6680146 73.1656049,36.6680146 C70.9574976,36.6680146 69.0008439,35.0763512 69.0008439,32.5634878 C69.0008439,30.4959268 70.4541122,28.399922 73.3018488,28.399922 C74.2197024,28.399922 75.0567659,28.5849268 75.9325512,29.0127805 C75.9325512,29.0139756 76.0532585,30.8884049 76.0322244,30.840839" id="Fill-16" fill="#FFFFFE"></path>
                <path d="M82.5912927,28.5306683 L84.6189366,28.5306683 C84.427,28.6224537 84.3039024,28.7878585 84.3039024,29.0603463 L84.3039024,36.0219317 C84.3039024,36.2836634 84.427,36.4485902 84.6189366,36.5530439 L82.5912927,36.5530439 C82.7719951,36.4485902 82.8829024,36.2824683 82.8829024,36.0219317 L82.8829024,32.4114683 L79.399839,32.4114683 L79.399839,36.0219317 C79.399839,36.2836634 79.4997512,36.4485902 79.6914488,36.5530439 L77.6638049,36.5530439 C77.8447463,36.4485902 77.9575659,36.2824683 77.9575659,36.0219317 L77.9575659,29.0603463 C77.9575659,28.7878585 77.8447463,28.6224537 77.6638049,28.5306683 L79.6914488,28.5306683 C79.4985561,28.6224537 79.399839,28.7878585 79.399839,29.0603463 L79.399839,31.8339854 L82.8829024,31.8339854 L82.8829024,29.0603463 C82.8829024,28.7878585 82.7719951,28.6224537 82.5912927,28.5306683" id="Fill-17" fill="#FFFFFE"></path>
                <path d="M88.4464341,28.5306683 C88.2556927,28.6224537 88.1538683,28.7878585 88.1538683,29.0603463 L88.1538683,36.0219317 C88.1538683,36.2836634 88.2556927,36.4485902 88.4464341,36.5530439 L86.4202244,36.5530439 C86.6009268,36.4485902 86.710639,36.2824683 86.710639,36.0219317 L86.710639,29.0603463 C86.710639,28.7878585 86.6018829,28.6224537 86.4202244,28.5306683 L88.4464341,28.5306683" id="Fill-18" fill="#FFFFFE"></path>
                <path d="M96.9655024,29.0139756 L97.0441415,30.8884049 C96.4743073,29.2855073 95.0533073,29.0350098 94.5267366,29.0350098 C92.6255366,29.0350098 91.5281756,30.5148098 91.5281756,32.4105122 C91.5281756,34.0287073 92.2885122,36.0207366 94.6041805,36.0207366 C94.8381854,36.0207366 95.5000439,35.9999415 96.0287659,35.6349512 L96.0287659,33.5819707 C96.0287659,33.3073317 95.9135561,33.1419268 95.7371561,33.0367561 L97.7392244,33.0367561 C97.5719073,33.1419268 97.4476146,33.3073317 97.4476146,33.5819707 L97.4476146,35.3280439 C97.4476146,35.5620488 97.5728634,35.7747805 97.6295122,35.8092 C96.6848878,36.3644537 95.0953756,36.6692098 94.1997512,36.6692098 C91.9703707,36.6692098 90.002722,35.0775463 90.002722,32.5644439 C90.002722,30.497122 91.4693756,28.4011171 94.335039,28.4011171 C95.2528927,28.4018341 96.0820683,28.6114585 96.9655024,29.0139756" id="Fill-19" fill="#FFFFFE"></path>
                <path d="M102.677707,33.7227561 C102.145639,32.4114683 101.534693,30.8329512 101.534693,30.8329512 C101.534693,30.8329512 100.7734,32.8347805 100.414146,33.7227561 L102.677707,33.7227561 Z M105.139659,35.9765171 C105.249371,36.2248634 105.329205,36.3501122 105.698259,36.5518488 L103.3018,36.5518488 C103.594366,36.387878 103.647668,36.2236683 103.574288,35.9765171 C103.535566,35.8591561 103.247302,35.1373024 102.932746,34.3370488 L100.188985,34.3370488 C99.8531561,35.1373024 99.5837756,35.8345366 99.5615463,35.965522 C99.4618732,36.2482878 99.519478,36.4110634 99.8187366,36.5530439 L98.274639,36.5530439 C98.588239,36.328839 98.6893463,36.1995268 98.803361,35.9777122 C99.0139415,35.5264341 101.9592,28.2820829 101.9592,28.2820829 C101.9592,28.2820829 104.937922,35.525239 105.139659,35.9765171 L105.139659,35.9765171 Z" id="Fill-20" fill="#FFFFFE"></path>
                <path d="M112.034795,29.0603463 C112.034795,28.7878585 111.923888,28.6224537 111.74438,28.5306683 L112.986829,28.5306683 C112.820707,28.6224537 112.694263,28.7878585 112.694263,29.0603463 L112.694263,36.8833756 C112.694263,36.8833756 107.321234,30.2055122 107.321234,30.1113366 L107.321234,36.0219317 C107.321234,36.2836634 107.444332,36.4485902 107.636029,36.5530439 L106.390234,36.5530439 C106.557551,36.4485902 106.68041,36.2824683 106.68041,36.0219317 L106.68041,29.7212488 C106.68041,29.262322 106.691644,29.2489366 106.480824,28.9786 C106.370156,28.8366195 106.211444,28.6712146 105.974332,28.5306683 L107.903259,28.5306683 L112.0336,33.7227561 L112.0336,29.0603463 L112.034795,29.0603463" id="Fill-21" fill="#FFFFFE"></path>
                <path d="M122.165605,34.1953073 C122.165605,35.6684146 120.934868,36.6704049 119.561434,36.6704049 C118.5408,36.6704049 117.80341,36.3058927 117.410932,36.1039171 L117.353327,34.1097366 C117.564146,34.9501463 118.235805,36.0563512 119.399615,36.0563512 C120.509405,36.0563512 120.84858,35.2183317 120.84858,34.6396537 C120.84858,33.5078732 119.873122,33.3548976 118.855356,32.7795659 C117.8254,32.1743561 117.377707,31.536878 117.377707,30.6422098 C117.377707,29.0350098 118.797751,28.4011171 119.818624,28.4011171 C120.195566,28.4011171 120.936063,28.4816683 121.509005,28.8354244 L121.562307,30.5824537 C121.409571,29.9595561 120.768746,29.0139756 119.69242,29.0139756 C118.843166,29.0139756 118.509727,29.6390244 118.509727,30.144561 C118.509727,30.8652195 118.988493,31.1400976 120.04259,31.6422878 C121.082346,32.1655122 122.165605,32.5534488 122.165605,34.1953073" id="Fill-22" fill="#FFFFFE"></path>
                <path d="M126.635122,29.1181902 L126.635122,36.0207366 C126.635122,36.2824683 126.75798,36.4476341 126.923146,36.5518488 L124.923468,36.5518488 C125.103215,36.4476341 125.213883,36.2812732 125.213883,36.0207366 L125.213883,29.1181902 C124.384707,29.1181902 123.4212,29.2011317 123.4212,29.2011317 C123.153015,29.2011317 122.964663,29.4740976 122.860449,29.6734439 L122.860449,28.5306683 L128.9974,28.5306683 L128.9974,29.6734439 C128.896532,29.4740976 128.739015,29.223361 128.47059,29.2011317 C128.47059,29.2011317 127.452107,29.1181902 126.635122,29.1181902" id="Fill-23" fill="#FFFFFE"></path>
                <path d="M132.36382,33.7227561 C131.838205,32.4114683 131.224151,30.8329512 131.224151,30.8329512 C131.224151,30.8329512 130.46262,32.8347805 130.10241,33.7227561 L132.36382,33.7227561 Z M134.830312,35.9765171 C134.942176,36.2248634 135.017468,36.3501122 135.390107,36.5518488 L132.994605,36.5518488 C133.28502,36.387878 133.339278,36.2236683 133.26279,35.9765171 C133.231717,35.8591561 132.939151,35.1373024 132.624117,34.3370488 L129.878444,34.3370488 C129.545005,35.1373024 129.274429,35.8345366 129.2522,35.965522 C129.147985,36.2482878 129.206785,36.4110634 129.50939,36.5530439 L127.961946,36.5530439 C128.281283,36.328839 128.379761,36.1995268 128.491624,35.9777122 C128.7034,35.5264341 131.649854,28.2820829 131.649854,28.2820829 C131.649854,28.2820829 134.625229,35.525239 134.830312,35.9765171 L134.830312,35.9765171 Z" id="Fill-24" fill="#FFFFFE"></path>
                <path d="M138.313137,29.1181902 L138.313137,36.0207366 C138.313137,36.2824683 138.436234,36.4476341 138.6014,36.5518488 L136.600527,36.5518488 C136.780034,36.4476341 136.890941,36.2812732 136.890941,36.0207366 L136.890941,29.1181902 C136.058659,29.1181902 135.098498,29.2011317 135.098498,29.2011317 C134.830312,29.2011317 134.63742,29.4740976 134.537507,29.6734439 L134.537507,28.5306683 L140.673263,28.5306683 L140.673263,29.6734439 C140.573351,29.4740976 140.416073,29.223361 140.147888,29.2011317 C140.149083,29.2011317 139.130122,29.1181902 138.313137,29.1181902" id="Fill-25" fill="#FFFFFE"></path>
                <g id="Group-29" transform="translate(0.000000, 4.302439)" fill="#FFFFFE">
                    <path d="M146.419649,25.2667902 C146.204766,24.9598829 145.969566,24.8633171 145.544102,24.8410878 C145.205883,24.8157512 143.642902,24.8157512 143.642902,24.8157512 L143.642902,27.5315463 L145.331371,27.5315463 C145.485302,27.5315463 145.677239,27.3408049 145.734844,27.2000195 L145.734844,28.4527463 C145.677239,28.2875805 145.485302,28.1080732 145.331371,28.1080732 L143.642902,28.1080732 L143.642902,31.575361 C143.865912,31.6119317 144.549761,31.6618878 145.09402,31.6375073 C146.069478,31.6131268 146.518366,31.6375073 146.929727,30.8912732 L146.694766,32.2494098 L141.87938,32.2494098 C142.07538,32.1318098 142.217361,32.0022585 142.217361,31.7182976 L142.217361,24.7567122 C142.217361,24.4842244 142.060083,24.3190585 141.87938,24.2270341 L146.384512,24.2270341 L146.419649,25.2667902" id="Fill-26"></path>
                    <path d="M32.3244634,2.85777561 C32.3244634,2.85777561 30.2559463,7.30530244 29.2006537,9.51340976 C24.0394,7.1422878 17.2774,6.80191707 11.592922,10.1697707 C7.8017561,12.4909366 4.74654634,16.6069366 4.43199024,21.0264976 C4.32442927,23.9762976 5.60703415,27.1997805 5.18443902,30.1462341 C5.08476585,31.7302488 4.71547317,33.3032683 3.97951707,34.6712049 C3.03178537,36.249722 1.90000488,37.6188537 0,37.7252195 C0.424507317,37.1974537 3.34873171,35.7587659 2.20260976,29.1296634 C1.74153171,26.5049366 -1.86462927,19.9900878 1.62512683,11.8223854 C4.80869268,4.36769268 18.5975317,-4.46593171 32.3244634,2.85777561" id="Fill-28"></path>
                </g>
                <path d="M42.25,3.11818182 L42.25,47.6725446" id="Line-2" stroke="#FFFFFF" stroke-width="0.5" stroke-linecap="square"></path>
                <path d="M16.5326,20.2362829 C18.315961,19.5956976 20.3134878,19.5835073 22.2113415,20.0037122 C25.7919268,20.6323463 28.4668488,22.7928878 29.7769415,26.0008341 C31.1372293,29.3562585 32.1215317,32.0656 34.4682732,34.9310244 C34.5337659,35.0096634 30.8035512,34.3822244 30.8145463,34.2835073 C31.7290537,27.6336098 25.4460585,27.3544293 23.7069171,29.8484098 C25.0115122,31.2827951 27.2530829,32.0187512 28.9910293,31.7395707 C28.6231707,38.3419024 30.4631805,44.3335268 30.3577707,44.3234878 C28.861478,44.1117122 21.9998049,40.0743512 19.9965415,38.3263659 C17.0457854,38.8517415 14.7377659,39.9404976 11.3235415,40.4082683 C11.2181317,40.4259561 11.9454829,37.8927756 11.8412683,36.6280976 C11.8412683,33.1550732 9.17973171,29.8971707 11.0651561,25.6324976 C12.1959805,23.0720683 13.8997463,21.1830585 16.5326,20.2362829" id="Fill-30" fill="#FFFFFE"></path>
                <path d="M19.0000488,18.2323024 C19.2027415,18.2389951 19.5010439,18.2789122 19.5065415,18.2600293 C19.5643854,18.031761 19.7539317,16.3865561 21.1560488,15.1859366 C22.7178341,13.8481171 24.7689024,13.9788634 24.7442829,13.9697805 C22.7025366,13.3423415 20.5962537,13.298122 19.1420293,13.4291073 L19.0000488,18.2323024" id="Fill-31" fill="#FFFFFE"></path>
                <path d="M5.99592683,24.226078 C5.68567317,26.2068732 5.6624878,28.0428195 5.82980488,29.0170829 C5.8329122,29.0302293 6.12571707,27.3398488 7.08898537,26.3964195 C7.92365854,25.5629415 8.98899024,25.4023171 9.36808293,25.4142683 C9.36808293,25.4142683 9.55643415,24.7660341 9.52990244,24.7614927 L5.99592683,24.226078" id="Fill-32" fill="#FFFFFE"></path>
                <path d="M9.95106341,23.8591756 C10.0588634,23.5919463 10.181722,23.3622439 10.3346976,23.0586829 L6.70439512,21.6532195 C6.47827805,22.1054537 6.30522439,22.784761 6.22323902,23.1497512 L9.95106341,23.8591756" id="Fill-33" fill="#FFFFFE"></path>
                <path d="M10.8280439,22.4747463 C10.8411902,22.461361 11.4134146,21.7352049 11.4244098,21.7373561 L8.09551707,19.2385951 C7.74749756,19.6764878 7.46377561,20.1564488 7.23741951,20.668678 L10.8280439,22.4747463" id="Fill-34" fill="#FFFFFE"></path>
                <path d="M12.0695366,21.1132634 C12.0884195,21.0922293 12.8100341,20.4382585 12.8100341,20.4382585 L9.92572683,17.1590829 C9.27510244,17.7246146 9.07862439,17.9806098 8.68423415,18.4615268 L12.0695366,21.1132634" id="Fill-35" fill="#FFFFFE"></path>
                <path d="M13.5682195,19.9750293 C13.5739561,20.0125561 14.3997854,19.5125171 14.415322,19.4771415 L12.2712732,15.5762634 C11.4554829,15.974239 10.9301073,16.3997024 10.6882146,16.5660634 L13.5682195,19.9750293" id="Fill-36" fill="#FFFFFE"></path>
                <path d="M15.1567756,19.11 C16.1754976,18.7619805 16.1745415,18.7543317 16.1745415,18.7708244 L14.9571902,14.3880732 C14.2800341,14.5864634 13.3621805,14.9820488 13.1480146,15.1240293 L15.1567756,19.11" id="Fill-37" fill="#FFFFFE"></path>
                <path d="M16.9681024,18.5136341 C17.0046732,18.5325171 17.8871512,18.316439 17.8981463,18.316439 L18.0112049,13.5686976 C17.9746341,13.6064634 16.9083463,13.7682829 16.0026829,14.0197366 L16.9681024,18.5136341" id="Fill-38" fill="#FFFFFE"></path>
            </g>
        </g>
    </g>
</svg>