<?xml version="1.0" encoding="UTF-8"?>
<svg width="152px" height="42px" viewBox="0 0 152 42" version="1.1" xmlns="http://www.w3.org/2000/svg" xmlns:xlink="http://www.w3.org/1999/xlink">
    <!-- Generator: Sketch 46.2 (44496) - http://www.bohemiancoding.com/sketch -->
    <title>Matrix</title>
    <desc>Created with Sketch.</desc>
    <defs></defs>
    <g id="Home-Redesign" stroke="none" stroke-width="1" fill="none" fill-rule="evenodd">
        <g transform="translate(-576.000000, -1300.000000)" id="Matrix" fill-rule="nonzero" fill="#FFFFFF">
            <g transform="translate(576.000000, 1300.000000)">
                <polygon id="Shape" points="24.1666667 41 23.7890625 23.8567708 14.8020833 37.6015625 14.1979167 37.6015625 5.13541667 23.9322917 4.83333333 41 0 41 1.20833333 12.0755208 1.96354167 12 14.6510417 30.9557292 27.0364583 12 27.7916667 12.0755208 29 41"></polygon>
                <path d="M54.0084034,41 L51.210084,34.4296875 L39.8655462,34.4296875 L37.0672269,41 L32,41 L45.1596639,12 L45.8403361,12 L59,41 L54.0084034,41 Z M45.5378151,21.0625 L41.4537815,30.578125 L49.6218487,30.578125 L45.5378151,21.0625 Z" id="Shape"></path>
                <polygon id="Shape" points="68.9508197 17.5145119 68.9508197 42 64.0491803 42 64.0491803 17.5145119 55 17.5145119 55 13 78 13 78 17.5145119"></polygon>
                <path d="M97.5053763,40.9238845 L91.2580645,30.5721785 C91.0322581,30.5721785 90.7311828,30.648294 90.5053763,30.648294 C90.2795699,30.648294 89.9784946,30.648294 89.7526882,30.648294 C89.3010753,30.648294 88.8494624,30.648294 88.3225806,30.648294 C87.8709677,30.648294 87.344086,30.648294 86.8924731,30.5721785 L86.8924731,41 L82,41 L82,12.4566929 C83.1290323,12.3044619 84.3333333,12.2283465 85.5376344,12.152231 C86.7419355,12.0761155 88.0967742,12 89.5268817,12 C91.5591398,12 93.2903226,12.2283465 94.7204301,12.6850394 C96.1505376,13.1417323 97.4301075,13.8267717 98.3333333,14.5879265 C99.311828,15.4251969 99.9892473,16.3385827 100.44086,17.480315 C100.892473,18.5459318 101.11828,19.7637795 101.11828,21.0577428 C101.11828,22.9606299 100.666667,24.6351706 99.688172,26.0813648 C98.7096774,27.5275591 97.3548387,28.6692913 95.5483871,29.4304462 L103,41 L97.5053763,41 L97.5053763,40.9238845 Z M96.1505376,21.2860892 C96.1505376,19.839895 95.6236559,18.6220472 94.5698925,17.7086614 C93.516129,16.7952756 92.0860215,16.3385827 90.2043011,16.3385827 C89.6021505,16.3385827 89.0752688,16.3385827 88.4731183,16.4146982 C87.9462366,16.4146982 87.4193548,16.4908136 86.8924731,16.6430446 L86.8924731,26.4619423 C87.344086,26.5380577 87.7956989,26.5380577 88.2473118,26.6141732 C88.6989247,26.6141732 89.2258065,26.6902887 89.6774194,26.6902887 C91.7849462,26.6902887 93.3655914,26.2335958 94.4193548,25.2440945 C95.5483871,24.2545932 96.1505376,22.9606299 96.1505376,21.2860892 Z" id="Shape"></path>
                <polygon id="Shape" points="107 42 107 13 112 13 112 42 107 42"></polygon>
                <polygon id="Shape" points="116 13 121.746269 13 141 42 135.253731 42"></polygon>
                <g id="Group" opacity="0.7" transform="translate(116.000000, 0.000000)">
                    <polygon id="Shape" points="35.8468085 0 30.4851064 0 30.0255319 0.687272727 35.3106383 0.687272727"></polygon>
                    <polygon id="Shape" points="29.0297872 1.98545455 34.3914894 1.98545455 34.8510638 1.29818182 29.5659574 1.29818182"></polygon>
                    <polygon id="Shape" points="28.1106383 3.28363636 33.3957447 3.28363636 33.9319149 2.59636364 28.5702128 2.59636364"></polygon>
                    <polygon id="Shape" points="27.1914894 4.65818182 32.4765957 4.65818182 33.012766 3.97090909 27.6510638 3.97090909"></polygon>
                    <polygon id="Shape" points="26.1957447 5.95636364 31.5574468 5.95636364 32.0170213 5.26909091 26.7319149 5.26909091"></polygon>
                    <polygon id="Shape" points="25.2765957 7.25454545 30.5617021 7.25454545 31.0978723 6.56727273 25.7361702 6.56727273"></polygon>
                    <polygon id="Shape" points="24.3574468 8.55272727 29.6425532 8.55272727 30.1787234 7.86545455 24.8170213 7.86545455"></polygon>
                    <polygon id="Shape" points="23.3617021 9.85090909 28.7234043 9.85090909 29.1829787 9.16363636 23.8978723 9.16363636"></polygon>
                    <polygon id="Shape" points="22.4425532 11.2254545 27.7276596 11.2254545 28.2638298 10.5381818 22.9021277 10.5381818"></polygon>
                    <polygon id="Shape" points="21.5234043 12.5236364 26.8085106 12.5236364 27.3446809 11.8363636 21.9829787 11.8363636"></polygon>
                    <polygon id="Shape" points="20.5276596 13.8218182 25.8893617 13.8218182 26.3489362 13.1345455 21.0638298 13.1345455"></polygon>
                    <polygon id="Shape" points="19.6085106 15.12 24.893617 15.12 25.4297872 14.4327273 20.0680851 14.4327273"></polygon>
                    <polygon id="Shape" points="18.6893617 16.4181818 23.9744681 16.4181818 24.5106383 15.7309091 19.1489362 15.7309091"></polygon>
                    <polygon id="Shape" points="17.693617 17.7927273 23.0553191 17.7927273 23.5148936 17.1054545 18.2297872 17.1054545"></polygon>
                    <polygon id="Shape" points="16.7744681 19.0909091 22.0595745 19.0909091 22.5957447 18.4036364 17.2340426 18.4036364"></polygon>
                    <polygon id="Shape" points="15.8553191 20.3890909 21.1404255 20.3890909 21.6765957 19.7018182 16.3148936 19.7018182"></polygon>
                    <polygon id="Shape" points="14.8595745 21.6872727 20.2212766 21.6872727 20.6808511 21 15.3957447 21"></polygon>
                    <polygon id="Shape" points="13.9404255 22.9854545 19.3021277 22.9854545 19.7617021 22.2981818 14.4 22.2981818"></polygon>
                    <polygon id="Shape" points="13.0212766 24.36 18.306383 24.36 18.8425532 23.6727273 13.4808511 23.6727273"></polygon>
                    <polygon id="Shape" points="12.0255319 25.6581818 17.387234 25.6581818 17.8468085 24.9709091 12.5617021 24.9709091"></polygon>
                    <polygon id="Shape" points="11.106383 26.9563636 16.3914894 26.9563636 16.9276596 26.2690909 11.5659574 26.2690909"></polygon>
                    <polygon id="Shape" points="10.187234 28.2545455 15.4723404 28.2545455 16.0085106 27.5672727 10.6468085 27.5672727"></polygon>
                    <polygon id="Shape" points="9.19148936 29.5527273 14.5531915 29.5527273 15.012766 28.8654545 9.72765957 28.8654545"></polygon>
                    <polygon id="Shape" points="8.27234043 30.9272727 13.6340426 30.9272727 14.093617 30.24 8.73191489 30.24"></polygon>
                    <polygon id="Shape" points="7.35319149 32.2254545 12.6382979 32.2254545 13.1744681 31.5381818 7.81276596 31.5381818"></polygon>
                    <polygon id="Shape" points="6.35744681 33.5236364 11.7191489 33.5236364 12.1787234 32.8363636 6.89361702 32.8363636"></polygon>
                    <polygon id="Shape" points="5.43829787 34.8218182 10.8 34.8218182 11.2595745 34.1345455 5.89787234 34.1345455"></polygon>
                    <polygon id="Shape" points="4.51914894 36.12 9.80425532 36.12 10.3404255 35.4327273 4.9787234 35.4327273"></polygon>
                    <polygon id="Shape" points="3.52340426 37.4945455 8.88510638 37.4945455 9.34468085 36.8072727 4.05957447 36.8072727"></polygon>
                    <polygon id="Shape" points="2.60425532 38.7927273 7.96595745 38.7927273 8.42553191 38.1054545 3.06382979 38.1054545"></polygon>
                    <polygon id="Shape" points="1.68510638 40.0909091 6.97021277 40.0909091 7.50638298 39.4036364 2.14468085 39.4036364"></polygon>
                    <polygon id="Shape" points="0.689361702 41.3890909 6.05106383 41.3890909 6.5106383 40.7018182 1.22553191 40.7018182"></polygon>
                </g>
            </g>
        </g>
    </g>
</svg>