<?xml version="1.0" encoding="UTF-8"?>
<svg width="169px" height="78px" viewBox="0 0 169 78" version="1.1" xmlns="http://www.w3.org/2000/svg" xmlns:xlink="http://www.w3.org/1999/xlink">
    <!-- Generator: Sketch 46.2 (44496) - http://www.bohemiancoding.com/sketch -->
    <title>mellon</title>
    <desc>Created with Sketch.</desc>
    <defs></defs>
    <g id="Home-Redesign" stroke="none" stroke-width="1" fill="none" fill-rule="evenodd">
        <g transform="translate(-45.000000, -1284.000000)" id="mellon" fill-rule="nonzero">
            <g transform="translate(45.000000, 1284.000000)">
                <g id="Group" transform="translate(1.000000, 27.000000)" fill="#F9F5EF">
                    <polygon id="Shape" points="28.1510907 31.6376104 23.81532 31.6376104 23.81532 7.39075325 23.7524828 7.39075325 14.4525689 19.4493506 13.7613591 19.4493506 4.39860792 7.39075325 4.33577067 7.39075325 4.33577067 31.6376104 0 31.6376104 0 0.518649351 4.08442164 0.518649351 14.0755454 13.2903896 24.1295063 0.518649351 28.1510907 0.518649351"></polygon>
                    <polygon id="Shape" points="51.777899 4.53818182 38.9590987 4.53818182 38.9590987 13.9387013 51.2752009 13.9387013 51.2752009 17.9582338 38.9590987 17.9582338 38.9590987 27.6180779 52.1549225 27.6180779 52.1549225 31.6376104 34.6233281 31.6376104 34.6233281 0.518649351 51.777899 0.518649351"></polygon>
                    <polygon id="Shape" points="62.1460462 27.6180779 75.7817308 27.6180779 75.7817308 31.6376104 57.8102755 31.6376104 57.8102755 0.518649351 62.1460462 0.518649351"></polygon>
                    <polygon id="Shape" points="86.0870408 27.6180779 99.7227253 27.6180779 99.7227253 31.6376104 81.7512701 31.6376104 81.7512701 0.518649351 86.0870408 0.518649351"></polygon>
                    <path d="M118.322553,0.0648311688 C128.25084,0.0648311688 134.534565,7.39075325 134.534565,16.0132987 C134.534565,24.4413506 128.439351,31.9617662 118.196879,31.9617662 C108.331429,31.9617662 102.110541,24.4413506 102.110541,16.0132987 C102.110541,7.45558442 108.519941,0.0648311688 118.322553,0.0648311688 Z M118.322553,27.9422338 C125.108977,27.9422338 130.07312,22.8854026 130.07312,16.0781299 C130.07312,9.20602597 125.046139,4.21402597 118.322553,4.21402597 C111.598967,4.21402597 106.571986,9.20602597 106.571986,16.0781299 C106.571986,22.8854026 111.598967,27.9422338 118.322553,27.9422338 Z" id="Shape"></path>
                    <polygon id="Shape" points="167.775474 31.6376104 164.068075 31.6376104 143.897316 7.65007792 143.897316 31.6376104 139.812895 31.6376104 139.812895 0.518649351 143.268944 0.518649351 163.753889 24.6358442 163.753889 0.518649351 167.838311 0.518649351 167.838311 31.6376104"></polygon>
                </g>
                <g id="Group" fill="#F9F5EF">
                    <polygon id="Shape" points="5.35371946 0.860501567 3.26441629 0.860501567 3.26441629 6.12931034 2.37804525 6.12931034 2.37804525 0.860501567 0.288742081 0.860501567 0.288742081 0.0987460815 5.35371946 0.0987460815"></polygon>
                    <polygon id="Shape" points="11.3683801 6.12931034 10.482009 6.12931034 10.482009 3.52664577 7.06314932 3.52664577 7.06314932 6.19278997 6.17677828 6.19278997 6.17677828 0.0987460815 7.06314932 0.0987460815 7.06314932 2.76489028 10.482009 2.76489028 10.482009 0.0987460815 11.3683801 0.0987460815"></polygon>
                    <polygon id="Shape" points="16.2434208 0.860501567 13.7109321 0.860501567 13.7109321 2.70141066 16.1801086 2.70141066 16.1801086 3.46316614 13.7109321 3.46316614 13.7109321 5.36755486 16.3700452 5.36755486 16.3700452 6.12931034 12.8878733 6.12931034 12.8878733 0.0987460815 16.306733 0.0987460815 16.306733 0.860501567"></polygon>
                    <path d="M6.05015385,17.5556426 L5.16378281,17.5556426 L4.34072398,15.7782132 L1.80823529,15.7782132 L1.04848869,17.5556426 L0.162117647,17.5556426 L2.75791855,11.4615987 L3.39104072,11.4615987 L6.05015385,17.5556426 Z M2.12479638,15.0164577 L4.0241629,15.0164577 L3.07447964,12.7946708 L2.12479638,15.0164577 Z" id="Shape"></path>
                    <polygon id="Shape" points="12.3813756 17.5556426 11.621629 17.5556426 7.63295928 12.9216301 7.63295928 17.6191223 6.80990045 17.6191223 6.80990045 11.5250784 7.50633484 11.5250784 11.621629 16.2225705 11.621629 11.5250784 12.4446878 11.5250784 12.4446878 17.5556426"></polygon>
                    <path d="M13.8375566,11.5250784 L16.1801086,11.5250784 C18.3960362,11.5250784 19.4090317,13.112069 19.4090317,14.5721003 C19.4090317,16.1590909 18.2060995,17.6191223 16.1801086,17.6191223 L13.8375566,17.6191223 L13.8375566,11.5250784 L13.8375566,11.5250784 Z M14.7239276,16.7938871 L16.0534842,16.7938871 C18.0161629,16.7938871 18.4593484,15.2703762 18.4593484,14.5721003 C18.4593484,13.3659875 17.6996018,12.3503135 15.9901719,12.3503135 L14.6606154,12.3503135 L14.6606154,16.7938871 L14.7239276,16.7938871 Z" id="Shape"></path>
                    <path d="M22.0681448,11.5250784 C23.2710769,11.5250784 24.0308235,12.1598746 24.0308235,13.2390282 C24.0308235,13.9373041 23.6509502,14.4451411 23.0178281,14.6990596 C23.587638,15.0799373 23.9041991,15.6512539 24.3473846,16.3495298 C24.6006335,16.7938871 24.7272579,16.984326 25.1704434,17.5556426 L24.157448,17.5556426 L23.3343891,16.2860502 C22.5113303,15.0164577 22.1947692,14.8894984 21.7515837,14.8894984 L21.3717104,14.8894984 L21.3717104,17.492163 L20.4853394,17.492163 L20.4853394,11.3981191 L22.0681448,11.3981191 L22.0681448,11.5250784 Z M21.4350226,14.1277429 L22.0048326,14.1277429 C22.9545158,14.1277429 23.2077647,13.619906 23.2077647,13.112069 C23.2077647,12.5407524 22.8912036,12.2233542 22.0048326,12.2233542 L21.4350226,12.2233542 L21.4350226,14.1277429 Z" id="Shape"></path>
                    <polygon id="Shape" points="29.412362 12.2868339 26.8798733 12.2868339 26.8798733 14.1277429 29.3490498 14.1277429 29.3490498 14.8894984 26.8798733 14.8894984 26.8798733 16.7938871 29.5389864 16.7938871 29.5389864 17.5556426 26.0568145 17.5556426 26.0568145 11.4615987 29.4756742 11.4615987 29.4756742 12.2868339"></polygon>
                    <polygon id="Shape" points="36.6299548 17.6191223 36.4400181 17.6191223 34.4773394 12.6677116 32.4513484 17.6191223 32.2614118 17.6191223 29.7922353 11.5250784 30.6786063 11.5250784 32.324724 15.7147335 33.9708416 11.5250784 34.7939005 11.5250784 36.5033303 15.7147335 38.149448 11.5250784 39.035819 11.5250784"></polygon>
                    <polygon id="Shape" points="49.9255204 17.6191223 49.7355837 17.6191223 47.772905 12.6677116 45.8102262 17.6191223 45.6202896 17.6191223 43.1511131 11.5250784 44.0374842 11.5250784 45.6836018 15.7147335 47.3297195 11.5250784 48.1527783 11.5250784 49.8622081 15.7147335 51.5083258 11.5250784 52.3946968 11.5250784"></polygon>
                    <path d="M52.8378824,17.1112853 C52.8378824,17.4286834 52.5846335,17.6191223 52.3313846,17.6191223 C52.0781357,17.6191223 51.8248869,17.3652038 51.8248869,17.1112853 C51.8248869,16.7938871 52.0781357,16.6034483 52.3313846,16.6034483 C52.5846335,16.6034483 52.8378824,16.8573668 52.8378824,17.1112853 Z" id="Shape"></path>
                </g>
                <polygon id="Shape" fill="#EF4B4B" points="24.8301887 27 29 27 29 28.4266212 15.0792453 46 14.245283 46 12 43.1467577"></polygon>
                <g id="Group" transform="translate(86.000000, 69.000000)" fill="#F9F5EF">
                    <polygon id="Shape" points="4.76234 1.38 1.42255272 1.38 1.42255272 3.66 4.76234 3.66 4.76234 4.74 1.42255272 4.74 1.42255272 8.52 0.162255639 8.52 0.162255639 0.36 4.76234 0.36"></polygon>
                    <path d="M10.7487511,0.24 C13.5844196,0.24 15.3488355,2.16 15.3488355,4.44 C15.3488355,6.66 13.5844196,8.64 10.6857363,8.64 C7.85006785,8.64 6.08565193,6.66 6.08565193,4.44 C6.14866679,2.16 7.97609756,0.24 10.7487511,0.24 Z M10.7487511,7.56 C12.7022116,7.56 14.0885384,6.24 14.0885384,4.44 C14.0885384,2.64 12.6391968,1.32 10.7487511,1.32 C8.85830552,1.32 7.40896387,2.64 7.40896387,4.44 C7.40896387,6.24 8.79529067,7.56 10.7487511,7.56 Z" id="Shape"></path>
                    <path d="M24.3599597,5.28 C24.3599597,7.26 23.0996626,8.58 20.5160535,8.58 C18.6886228,8.58 16.9242069,7.62 16.9242069,5.4 L16.9242069,0.3 L18.1845039,0.3 L18.1845039,5.16 C18.1845039,6.06 18.3105337,6.48 18.6886228,6.84 C19.1927416,7.32 19.8228902,7.56 20.5160535,7.56 C21.4612764,7.56 22.1544398,7.26 22.5325289,6.9 C22.9736329,6.48 23.0996626,5.88 23.0996626,5.1 L23.0996626,0.36 L24.3599597,0.36 L24.3599597,5.28 L24.3599597,5.28 Z" id="Shape"></path>
                    <polygon id="Shape" points="34.2532918 8.52 33.1820392 8.52 27.4476875 2.22 27.4476875 8.52 26.3134201 8.52 26.3134201 0.36 27.3216578 0.36 33.1190244 6.72 33.1190244 0.36 34.2532918 0.36"></polygon>
                    <path d="M36.4588117,0.36 L39.7985989,0.36 C42.9493416,0.36 44.3986833,2.52 44.3986833,4.44 C44.3986833,6.54 42.6972822,8.52 39.8616138,8.52 L36.5218265,8.52 L36.5218265,0.36 L36.4588117,0.36 Z M37.7191087,7.44 L39.6725692,7.44 C42.4452228,7.44 43.1383862,5.4 43.1383862,4.38 C43.1383862,2.76 42.0671337,1.32 39.6095544,1.32 L37.7191087,1.32 L37.7191087,7.44 Z" id="Shape"></path>
                    <path d="M53.0317183,8.52 L51.7714212,8.52 L50.6371539,6.12 L46.9822923,6.12 L45.9110398,8.52 L44.6507427,8.52 L48.3686191,0.3 L49.2508271,0.3 L53.0317183,8.52 Z M47.4233963,5.04 L50.0700202,5.04 L48.6836934,2.1 L47.4233963,5.04 Z" id="Shape"></path>
                    <polygon id="Shape" points="59.4592334 1.38 56.4975353 1.38 56.4975353 8.52 55.2372382 8.52 55.2372382 1.38 52.2755401 1.38 52.2755401 0.3 59.4592334 0.3"></polygon>
                    <polygon id="Shape" points="62.1688722 8.52 60.9085751 8.52 60.9085751 0.36 62.1688722 0.36"></polygon>
                    <path d="M68.5963873,0.24 C71.4320557,0.24 73.1964717,2.16 73.1964717,4.44 C73.1964717,6.66 71.4320557,8.64 68.5333725,8.64 C65.697704,8.64 63.9332881,6.66 63.9332881,4.44 C63.996303,2.16 65.8237337,0.24 68.5963873,0.24 Z M68.5963873,7.56 C70.5498478,7.56 71.9361746,6.24 71.9361746,4.44 C71.9361746,2.64 70.4868329,1.32 68.5963873,1.32 C66.7059417,1.32 65.2566,2.64 65.2566,4.44 C65.2566,6.24 66.7059417,7.56 68.5963873,7.56 Z" id="Shape"></path>
                    <polygon id="Shape" points="82.9637741 8.52 81.8925215 8.52 76.1581698 2.22 76.1581698 8.52 75.0239024 8.52 75.0239024 0.36 76.0321401 0.36 81.8295067 6.72 81.8295067 0.36 82.9637741 0.36"></polygon>
                </g>
            </g>
        </g>
    </g>
</svg>