<?xml version="1.0" encoding="UTF-8"?>
<svg width="184px" height="58px" viewBox="0 0 184 58" version="1.1" xmlns="http://www.w3.org/2000/svg" xmlns:xlink="http://www.w3.org/1999/xlink">
    <!-- Generator: Sketch 46.2 (44496) - http://www.bohemiancoding.com/sketch -->
    <title>penn</title>
    <desc>Created with Sketch.</desc>
    <defs>
        <polygon id="path-1" points="26.1710467 0.242609756 0.0424 0.242609756 0.0424 58 26.1710467 58 52.2996933 58 52.2996933 0.242609756"></polygon>
    </defs>
    <g id="Home-Redesign" stroke="none" stroke-width="1" fill="none" fill-rule="evenodd">
        <g transform="translate(-795.000000, -1299.000000)" id="penn">
            <g transform="translate(795.000000, 1299.000000)">
                <g id="Group-3">
                    <mask id="mask-2" fill="white">
                        <use xlink:href="#path-1"></use>
                    </mask>
                    <g id="Clip-2"></g>
                    <path d="M26.1502,58 C14.5848933,51.1156829 0,41.1106829 0,23.4447317 L0,4.79065854 C5.33462667,2.77056098 13.5778933,0.242609756 26.1494933,0.242609756 C38.8652533,0.242609756 47.5932933,2.99478049 52.2996933,4.79065854 L52.2996933,23.4447317 C52.2996933,41.2599268 37.1501733,51.5266341 26.1502,58" id="Fill-1" fill="#FFFFFE" mask="url(#mask-2)"></path>
                </g>
                <path d="M16.7412644,48.5765013 C19.8711951,50.9675209 23.2224919,53.0822761 26.5021492,55 C26.5322378,52.1139482 26.4369572,50.4135896 28.4328343,48.3703547 C29.2409281,47.5429637 30.0726629,46.7015492 30.8248779,45.9386667 C31.3908301,45.3637001 31.8500395,44.9359811 32.1179713,44.9359811 C32.3092488,44.9359811 32.3944998,45.0341461 32.3944998,45.2844669 C32.3944998,45.5425007 32.5112723,46.4883909 33.1108951,47.6207946 C33.8566625,49.0287616 34.9584783,49.2103669 35.3109448,49.2896001 C43.8546741,42.9951182 51,34.7555664 51,23.0332597 C51,16.5978409 51,5.94974003 51,5.94974003 C48.8930817,5.24856126 40.2368783,2 26.5,2 C12.7624053,2 4.10691833,5.24856126 2,5.94974003 C2,5.94974003 2,16.5978409 2,23.0332597 C2,28.1855213 3.38049358,32.6653525 5.654332,36.6024713 C5.88071289,34.2289812 7.52054154,33.1042904 7.52054154,30.7721698 C7.52054154,29.1454351 7.05058627,28.1182082 7.05058627,26.756519 C7.05058627,24.2932779 10.4477324,19.2272613 12.2093482,17.162991 C12.2609287,17.1026896 12.3755519,16.9582468 12.5166818,16.9582468 C12.6434837,16.9582468 12.7387643,17.0437906 12.816135,17.1601863 C12.9952338,17.4287377 13.0726045,17.571077 13.2645984,17.571077 C13.4580251,17.571077 13.5325302,17.465199 13.5325302,17.2976173 C13.5325302,16.8684959 13.0253224,16.1525924 13.0253224,13.3534867 C13.0253224,11.3964968 13.4902629,10.9813989 14.7332086,9.79009618 C14.9610223,9.57273076 15.6559256,8.91853096 16.320024,8.91853096 C17.0579111,8.91853096 17.4232726,9.34625002 17.8781836,9.79851033 C18.6468756,10.5634964 19.7186029,11.9188749 19.8912541,12.1327345 C19.939969,12.1930358 19.9836691,12.248429 20.0889792,12.248429 C20.4443112,12.248429 20.7408989,12.1439533 22.2847305,12.1439533 C25.0887014,12.1439533 29.3154332,12.5751783 31.4875435,13.2707476 C32.6058364,13.62905 32.8393813,13.8758649 33.1352525,13.8758649 C33.2806807,13.8758649 33.2928594,13.7833093 33.2928594,13.7089843 C33.2928594,13.5708521 32.998421,13.3485785 32.998421,13.1599614 C32.998421,13.0344504 33.1022983,12.9425959 33.2047428,12.8886052 C34.8245124,12.0373742 36.2078716,11.393692 37.4730255,11.393692 C38.2101962,11.393692 38.574125,12.0177411 38.8843241,12.6354796 C39.1257493,13.1164883 39.3858008,13.7629751 39.3858008,14.4262902 C39.3858008,16.1056134 38.7302991,17.1293344 38.208047,17.8466403 C38.4580689,18.0983635 38.8119682,18.4784024 39.0283195,18.7308267 C39.4123074,19.1802823 39.8743823,19.767169 39.8743823,20.3764933 C39.8743823,20.6401365 39.7425656,21.053832 39.6680605,21.3812825 C39.6343899,21.52853 39.5025732,21.8230251 39.2410889,21.8181169 C39.0053949,21.8139098 38.9445013,21.5614854 38.9351882,21.3385106 C38.9337554,21.292934 38.9351882,21.1919642 38.9351882,21.1695265 C38.9351882,20.6864143 38.7983567,20.0308122 38.3398637,19.5715401 C37.8125969,19.0435525 37.3297465,18.6600077 36.7186614,18.6600077 C36.6828416,18.6600077 36.5531741,18.6600077 36.5101904,18.6600077 C35.5072371,18.6600077 35.0516097,19.0891291 34.7765139,19.3513699 C34.4756279,19.6388532 34.2413667,20.0216969 34.2413667,20.5391668 C34.2413667,20.8350642 34.4476885,21.1863548 34.7220679,21.7234577 C34.8839732,22.0403905 35.2994824,22.7962613 35.5265797,23.1847143 C35.7243048,23.5233837 35.9786251,23.642584 36.263034,23.642584 C36.9608029,23.642584 37.5690225,23.5479249 37.5690225,23.3424795 C37.5690225,23.2863852 37.5382175,23.2387051 37.4429369,23.2387051 C37.4028188,23.2387051 37.3061054,23.2506251 37.220138,23.2506251 C36.3081669,23.2506251 35.8203018,22.1147155 35.3632416,21.0839827 C35.7121261,20.7523251 36.1061435,20.4108511 36.8218223,20.4108511 C37.7302114,20.4108511 38.3262522,21.0082554 38.3262522,21.7844603 C38.3262522,22.1708098 38.204465,22.4926509 38.1335419,22.6377949 C38.0977222,22.7107175 38.0776631,22.7555929 38.0776631,22.7976636 C38.0776631,22.9189675 38.23527,22.9435088 38.4831428,22.9996031 C38.5712594,23.0199373 38.7403287,23.0585021 38.8427732,23.0879516 C39.1099886,23.1636789 39.3936811,23.3894585 39.5133191,23.7042878 C39.5935554,23.9139402 39.7755198,24.3949489 39.8156379,24.5113445 C39.9653645,24.9509836 40.2082225,25.5904587 40.2082225,26.3589506 C40.2082225,27.1393626 40.1537764,27.3756598 39.9345595,28.168693 C39.654449,29.1825975 39.5305126,29.5682459 39.4846633,30.1249818 C39.5813766,30.2995753 39.589257,30.3479567 39.6329571,30.4496276 C39.7898477,30.772871 39.9940203,31.3618612 39.9940203,31.9999339 C39.9940203,32.1703203 39.9940203,32.5061849 39.9940203,32.5251168 C39.9940203,33.541826 39.5792275,34.3327556 39.1307641,34.9252517 C38.7811632,35.3866273 38.2811193,36.0366201 37.9945612,36.3970259 C37.8082985,36.6150925 37.5575602,36.7728578 37.278166,36.7728578 C37.1449165,36.7728578 36.9873096,36.7286835 36.830419,36.6901187 C36.6556186,36.6473468 36.2838095,36.5554923 36.1254861,36.5162263 C35.5151174,36.3654729 35.2894529,35.9749163 35.0917278,35.4490322 C35.0623556,35.3705002 34.9699406,35.1468242 34.9412848,35.0760051 C34.7951402,34.7099898 34.7134712,34.4750949 34.4813591,34.4750949 C34.3079915,34.4750949 34.1417878,34.5858812 33.9698529,34.8397079 C33.3594842,35.7379179 33.0277932,36.0646672 31.9546332,36.322701 C31.5792421,36.4131531 30.817714,36.5688147 30.3914588,36.6613703 C29.7488523,36.8009049 28.6004708,37.0961012 27.9535659,37.0961012 C27.816018,37.0961012 27.6720226,37.087687 27.5237288,37.0715599 C26.6425626,36.950256 26.0164332,36.8934605 24.9181994,35.6103034 C23.4087546,33.8468387 23.5642124,33.5979203 23.4732302,31.216016 C23.4632007,30.9502692 23.3743677,30.6186117 23.092108,30.6186117 C22.8392204,30.6186117 22.729612,31.1241616 22.637197,31.8400651 C22.5290213,32.6800773 22.3305798,33.5530448 21.9086231,33.5530448 C21.6127518,33.5530448 21.4143104,33.5088706 20.9601158,33.3644277 C20.4113571,33.1891331 19.0437586,32.7368727 18.3252142,32.5047826 C17.3466183,32.1878498 16.408857,31.9368278 16.0320331,31.0877003 C15.8543671,30.6887295 15.5262581,29.94548 15.359338,29.5591305 C15.2425656,29.2870732 15.1565981,29.1454351 14.9739174,29.1454351 C14.7138659,29.1454351 14.6558379,29.4476431 14.6271821,29.6867451 C14.5942279,29.9566989 14.5240212,30.580748 14.4896342,30.9699022 C14.3427732,32.6295924 14.0039182,33.3349782 13.2860902,34.2605342 C12.9572648,34.6847474 12.6449165,35.1166735 12.2809877,35.5885668 C11.5294892,36.5646077 11.076011,37.5630862 11.099652,39.4534642 C11.1018012,39.5768717 11.0924881,40.2808552 11.099652,40.6055009 C11.1669932,43.4193314 11.8962835,44.7978488 16.7412644,48.5765013 Z M34.0966549,39.9555082 C33.8688412,40.0102002 33.4232434,40.1181817 31.4381122,40.1181817 C28.4306851,40.1181817 27.9206117,39.3945652 27.9206117,38.821001 C27.9206117,37.8624896 32.2333109,37.1872544 33.9333168,37.1872544 C35.5609667,37.1872544 36.2809439,37.6991149 36.2809439,38.0889703 C36.2809439,38.5412306 35.5466388,39.6126318 34.0966549,39.9555082 Z M28.2730782,21.7683332 C28.2730782,21.0902933 27.4929238,20.096723 26.133922,20.096723 C24.9246469,20.096723 24.0012135,20.9893236 23.7597883,21.6876976 C24.049212,22.2360194 24.3286061,22.8151931 25.4877336,23.1594719 C25.6410421,23.2050485 25.7950671,23.2085544 25.7950671,23.3368701 C25.7950671,23.5184754 25.5987748,23.6096286 25.1861312,23.6096286 C23.871546,23.6096286 23.0913916,23.0844457 22.7439399,22.6398984 C22.4043685,22.6868774 22.0110676,22.8158943 21.5196205,22.8334237 C21.1184391,22.8474473 20.9343256,22.5845053 20.9343256,22.2332147 C20.9343256,22.006734 21.0030995,21.7578155 21.1406474,21.4815511 C21.2165853,21.3286941 21.2975379,21.1702277 21.3562823,21.0573379 C21.560455,20.6667813 21.8720869,19.7959173 23.0713325,19.1269927 C23.2110296,19.0491619 23.5735255,18.8346012 23.7597883,18.7273208 C24.4382146,18.3367643 24.9518699,18.2449098 25.7592473,18.2449098 C25.8215737,18.2449098 26.2700371,18.2449098 26.3509898,18.2449098 C27.3188397,18.2449098 27.8138688,18.5106566 28.2408404,18.8619472 C29.1069622,19.5757472 29.5840814,19.9642002 29.5840814,20.4942913 C29.5840814,21.0825803 29.55256,21.5334383 29.0718588,22.1539815 C28.6592152,22.6833715 28.0545776,23.0353632 27.6648586,23.0353632 C27.5545338,23.0353632 27.522296,22.9771654 27.522296,22.916864 C27.522296,22.8355273 27.6139946,22.7955601 27.7078423,22.720534 C28.0273546,22.4674084 28.1720664,22.0179528 28.2730782,21.7683332 Z M16.1688646,17.9728525 C16.4676014,17.9728525 16.6939823,17.7793271 17.1445949,17.2920079 C18.1525629,16.2023761 19.1254276,16.0565309 19.1254276,15.590247 C19.1254276,15.3826981 18.9893126,15.1793562 18.8474663,14.962692 C17.7735899,13.3205313 17.3150969,12.4335402 16.675356,11.2415362 C16.4439603,10.8096101 16.1416416,10.5144139 15.9116787,10.5144139 C15.5398696,10.5144139 15.1480014,10.938627 14.9209041,11.3018376 C14.6013919,11.8151005 14.2811632,12.3928718 14.2811632,12.9180547 C14.2811632,13.7124902 14.4810375,15.1611256 14.8177432,16.0894863 C15.1823884,17.0921719 15.7103716,17.9728525 16.1688646,17.9728525 Z M35.6455013,15.8132219 C35.5967865,15.7865771 35.425568,15.7255745 35.425568,15.558694 C35.425568,15.3672721 35.5674143,15.1681374 35.8561215,14.790202 C36.5195035,13.9186368 37.432191,12.8507415 37.7660312,12.8507415 C37.9293693,12.8507415 38.0310974,12.9608266 38.2324045,13.3338537 C38.3520425,13.5561274 38.4552034,13.9263498 38.4552034,14.2783415 C38.4552034,15.4366888 38.0468581,16.2500562 37.4149975,17.1700028 C37.0997836,16.8734042 36.5137723,16.2998399 35.6455013,15.8132219 Z M34.4763443,33.3826584 C34.4763443,32.9899983 34.8058861,32.3806739 34.8058861,31.835858 C34.8058861,31.18867 33.9949268,30.9825234 33.3652154,30.8976808 C32.0398842,30.7174779 31.5978684,30.7763769 31.5978684,30.490296 C31.5978684,30.2918624 31.7755344,30.0857158 32.0169596,29.7463453 C32.3737244,29.2450024 33.2226527,29.054983 33.6746981,28.9946816 C34.2700225,28.9147472 34.9291061,28.8362152 35.71929,28.8362152 C36.6040381,28.8362152 37.3562531,28.9659333 37.702272,29.0248323 C38.5146642,29.1629645 38.6407497,29.4960244 38.6407497,29.8690516 C38.6407497,29.9482848 38.6407497,30.1481207 38.6407497,30.2420787 C38.6407497,30.6179105 38.3262522,30.8114358 37.7595836,30.9320386 C37.6177374,30.9621893 37.4185795,30.9972482 37.3232989,31.0168812 C36.9120881,31.1003215 36.4041639,31.1802559 36.2236323,31.6879093 C35.8360625,32.7782423 35.162651,33.6329792 34.6640399,33.6119439 C34.5723413,33.6077368 34.4763443,33.5397224 34.4763443,33.3826584 L34.4763443,33.3826584 Z" id="Fill-4" fill="#253968"></path>
                <path d="M31.7707769,48.6163221 C31.8410692,47.8549409 32.176751,46.5845382 32.176751,46.0661967 C32.176751,45.8102521 32.091396,45.7098817 31.8998853,45.7098817 C31.6316268,45.7098817 31.1718576,46.1472099 30.6052154,46.7350938 C29.8520833,47.5151153 29.0193344,48.3754331 28.2102554,49.2214124 C26.211945,51.3105508 26.3073417,53.0491098 26.2772164,56 C28.4978801,54.6614888 30.5284676,53.3753137 32.03258,52.3508185 C31.8095094,51.1212809 31.6230196,50.2394551 31.7707769,48.6163221 Z M10.8559407,41.2821126 C10.848768,40.9501733 10.8580925,40.230374 10.8559407,40.104194 C10.8322708,38.1713466 11.2863019,37.1504361 12.0387167,36.1524674 C12.4030892,35.6699725 12.7158183,35.2283427 13.0450446,34.7945991 C13.7637478,33.8482495 14.1030158,33.1270164 14.2500559,31.4300394 C14.2844848,31.0321424 14.3547771,30.3940734 14.3877715,30.1180547 C14.4164622,29.8735811 14.474561,29.5645836 14.7349295,29.5645836 C14.917833,29.5645836 15.0039052,29.7094038 15.12082,29.9875732 C15.2879436,30.3826025 15.6164527,31.1425499 15.7943353,31.5504839 C16.1716186,32.418688 17.1105232,32.6753495 18.0903122,32.9994026 C18.8097326,33.2367069 20.1789985,33.6991277 20.7284262,33.8783606 C21.1831746,34.0260485 21.381858,34.0712152 21.6780899,34.0712152 C22.1005611,34.0712152 22.2992446,33.1786354 22.4075521,32.3197515 C22.5000798,31.5877644 22.6098219,31.0708567 22.8630177,31.0708567 C23.1456215,31.0708567 23.2345629,31.4099653 23.2446046,31.6816824 C23.3356977,34.1170988 23.1800504,34.3716095 24.6913355,36.1746923 C25.7909083,37.486677 26.4178011,37.5447485 27.3000415,37.6687776 C26.9722497,37.5712749 26.551213,37.1920182 26.551213,36.3947903 C26.551213,36.2492532 26.551213,35.6154857 26.551213,35.5194169 C26.551213,35.0820887 26.6035737,34.6361572 26.8201888,34.1321544 C26.9227582,33.89485 27.0425421,33.4668419 27.1551532,33.2051619 C27.3473812,32.7585136 27.2555708,32.6452384 27.2555708,32.3305054 C27.2555708,31.9985661 27.1458287,31.6687776 26.8833084,30.8722667 C26.7477446,30.4628988 26.5655584,29.8678456 26.3898276,29.3781814 C25.8418344,27.8504003 25.6201983,27.4905007 23.7925979,27.2488947 C23.2058721,27.1707492 20.6416367,26.8072649 20.1051198,26.7312702 C18.0537315,26.440196 16.447767,26.3434102 15.6114318,24.9690525 C14.6129938,23.3287131 14.7134114,21.3284741 13.7529887,21.3284741 C13.2975232,21.3284741 13.0565209,21.8374955 13.0565209,22.5809535 C13.0565209,23.360975 13.3513183,24.6242084 13.3513183,26.8216035 C13.3513183,28.722189 13.1734357,29.2512845 12.0659729,30.6507349 C11.7783482,31.0135022 11.3917404,31.5476162 11.1442827,31.8580476 C10.3194238,32.8925798 9.95433403,33.4754451 10.0045428,34.680607 C10.1343685,37.800693 10.6285666,40.0927231 10.8559407,41.2821126 Z M32.8753706,28.0719321 C32.956422,28.271956 33.023128,28.5006572 33.023128,28.67057 C33.023128,29.0534114 32.9284485,29.1702712 32.7175715,29.3961047 C32.5913322,29.5086629 32.4507476,29.6269566 32.3230738,29.7466842 C32.1129141,29.8563747 31.9249897,29.9976102 31.7987504,30.1789939 C31.5570309,30.5259888 31.3791482,30.7367666 31.3791482,30.9396583 C31.3791482,31.0027482 31.3992318,31.0493488 31.445137,31.0859123 C31.1524914,30.868682 31.0348593,30.533875 31.0348593,30.2349146 C31.0348593,29.968216 31.1223661,29.8269805 31.1223661,29.5760545 C31.1223661,29.3631258 31.0621155,29.1544987 31.0262521,29.0340542 C30.6174089,27.665432 29.9281138,26.0372804 29.5034908,24.9303382 C29.0702605,23.8018879 28.7302752,23.183176 28.241098,23.183176 C27.9692531,23.183176 27.7275336,23.3172422 27.4420607,23.3172422 C27.8322548,23.3172422 28.4369123,22.9573426 28.850059,22.4160593 C29.3313463,21.7815749 29.3629061,21.3205879 29.3629061,20.7190823 C29.3629061,20.4638547 29.2574676,20.240889 29.0544806,20 C29.6742007,20.6308997 30.0708502,21.43458 30.4904524,22.3235751 C31.4099908,24.272195 32.2068763,26.4065002 32.8753706,28.0719321 Z M39.3042494,24.0011949 L39.3042494,24.0011949 C39.3845835,24.2155574 39.5667697,24.7073724 39.6069368,24.8263831 C39.7568459,25.2758992 40,25.9297407 40,26.7154977 C40,27.5134425 39.9454876,27.7550484 39.7260034,28.565898 C39.4455513,29.602581 39.3214639,29.9968933 39.2755587,30.5661369 C39.1973764,30.4048273 37.7219548,27.8590035 37.6086264,27.6525272 C37.4960152,27.445334 37.402053,27.2438762 37.402053,27.005138 C37.402053,26.7448919 37.5132296,26.5886008 37.8281106,26.3907277 C38.0174695,26.2717171 38.2620581,26.1311985 38.4270299,26.0466005 C39.1873346,25.6573067 39.3695209,25.1769626 39.3702381,24.6622058 C39.3702381,24.4464094 39.3386783,24.2248775 39.3042494,24.0011949 L39.3042494,24.0011949 Z" id="Fill-5" fill="#94B6D5"></path>
                <path d="M117.944876,28.7142568 L123.99681,28.7142568 L123.99681,26.5288376 L122.524948,26.5288376 L122.524948,21.0604698 C122.524948,18.117659 120.625565,16.2159174 117.686804,16.2159174 C115.24788,16.2159174 114.00644,17.5613204 113.657617,18.136938 L113.577501,18.1321183 L113.483915,16.5016606 L109.017282,16.5016606 L109.017282,18.6870798 L110.685534,18.6870798 L110.685534,26.5288376 L109.286698,26.5288376 L109.286698,28.7142568 L115.338631,28.7142568 L115.338631,26.5288376 L113.867478,26.5288376 L113.867478,21.6360875 C113.867478,19.8527744 114.861481,18.8302957 116.595669,18.8302957 C118.341201,18.8302957 119.343003,19.8527744 119.343003,21.6360875 L119.343003,26.5288376 L117.944876,26.5288376 L117.944876,28.7142568 Z M71.3869605,20.0985824 L69.0210629,20.0985824 L69.0210629,14.4711624 L71.3380402,14.4711624 C73.2714543,14.4711624 74.4717734,15.5494127 74.4717734,17.2859052 C74.4717734,19.0203321 73.289888,20.0985824 71.3869605,20.0985824 Z M82.1721072,21.1933576 C82.318868,19.3466991 83.3405217,18.2581207 84.9329119,18.2581207 C86.6394494,18.2581207 87.6582671,19.3102066 87.6582671,21.0714864 L87.6582671,21.1933576 L82.1721072,21.1933576 Z M175.035538,21.1933576 C175.150394,19.4176185 176.206789,18.2581207 177.79847,18.2581207 C179.505007,18.2581207 180.524534,19.3102066 180.524534,21.0714864 L180.524534,21.1933576 L175.035538,21.1933576 Z M154.715902,26.8152693 C153.229151,26.8152693 152.701663,25.9408262 152.701663,25.1923856 C152.701663,23.955083 153.839591,23.4269745 156.5061,23.4269745 L157.588018,23.4269745 L157.588018,23.5488457 C157.588018,25.7927906 156.09914,26.8152693 154.715902,26.8152693 Z M64,28.7142568 L70.7134206,28.7142568 L70.7134206,26.5288376 L69.0210629,26.5288376 L69.0210629,22.2840016 L71.756344,22.2840016 C75.6281351,22.2840016 77.9394405,20.4153098 77.9394405,17.2859052 C77.9394405,14.1551235 75.6281351,12.2857432 71.756344,12.2857432 L64,12.2857432 L64,14.4711624 L65.6916487,14.4711624 L65.6916487,26.5288376 L64,26.5288376 L64,28.7142568 Z M101.528227,28.7142568 L107.58016,28.7142568 L107.58016,26.5288376 L106.108298,26.5288376 L106.108298,21.0604698 C106.108298,18.117659 104.209625,16.2159174 101.270155,16.2159174 C98.83194,16.2159174 97.5897906,17.5613204 97.2409678,18.136938 L97.161561,18.1321183 L97.0672654,16.5016606 L92.6006322,16.5016606 L92.6006322,18.6870798 L94.2688842,18.6870798 L94.2688842,26.5288376 L92.8700482,26.5288376 L92.8700482,28.7142568 L98.9226906,28.7142568 L98.9226906,26.5288376 L97.4508286,26.5288376 L97.4508286,21.6360875 C97.4508286,19.8527744 98.4455408,18.8302957 100.17902,18.8302957 C101.925261,18.8302957 102.926354,19.8527744 102.926354,21.6360875 L102.926354,26.5288376 L101.528227,26.5288376 L101.528227,28.7142568 Z M82.2004668,23.2362495 L91.1344421,23.2362495 C91.0947387,18.7724585 88.8841098,16.2159174 85.055567,16.2159174 C81.2135535,16.2159174 78.7306727,18.7483597 78.7306727,22.6675172 C78.7306727,24.1533819 79.2298012,29 85.6440282,29 C88.270125,29 89.6873948,28.4732685 90.2524593,28.2536249 L90.2524593,25.9435804 C89.6115329,26.1983394 88.3502408,26.6720535 86.4040649,26.6720535 C83.9169301,26.6720535 82.3018522,25.2763872 82.2004668,23.2362495 Z M129.251839,26.0296476 L129.251839,23.908951 L126.258486,23.908951 L126.258486,28.1062778 C128.118874,28.7245849 129.888511,29 131.980739,29 C136.241765,29 138.58852,27.1622924 138.58852,23.8242608 C138.58852,20.4428514 136.026942,19.4988659 133.626304,18.8791819 L131.922602,18.4460915 C130.532983,18.1066424 129.828247,17.3809235 129.828247,16.2895909 C129.828247,15.2416363 130.7315,14.1854192 132.749993,14.1854192 C133.627721,14.1854192 134.52672,14.4663426 134.900357,14.60887 L134.900357,16.6145808 L137.889457,16.6145808 L137.889457,12.8420818 C136.499838,12.3146618 134.552244,12 132.656406,12 C128.590352,12 126.351363,13.6421628 126.351363,16.6221547 C126.351363,19.2833536 127.627544,20.7044957 130.754896,21.5259214 L132.221796,21.918388 C134.27432,22.4540705 135.112345,23.1749696 135.112345,24.4074524 C135.112345,25.7755772 134.107707,26.5288376 132.283478,26.5288376 C131.319252,26.5288376 129.867951,26.209356 129.251839,26.0296476 Z M139.933473,18.6870798 L141.674751,18.6870798 L141.674751,25.6117051 C141.674751,27.7021061 143.221057,29 145.711028,29 C146.932616,29 148.086851,28.7190765 148.41015,28.6336979 L148.41015,26.5081814 C148.084015,26.5694613 147.477829,26.6720535 147.00706,26.6720535 C145.459337,26.6720535 144.856696,26.0234508 144.856696,24.3585662 L144.856696,18.6870798 L148.290331,18.6870798 L148.290331,16.5016606 L144.856696,16.5016606 L144.856696,13.8342649 L141.674751,13.8342649 L141.674751,16.5016606 L139.933473,16.5016606 L139.933473,18.6870798 Z M152.823609,18.7944917 C152.932085,18.7573107 153.992733,18.4013366 154.917964,18.4013366 C156.798204,18.4013366 157.636938,19.1731875 157.636938,20.9048603 L157.636938,21.6243823 L155.970813,21.6243823 C151.750199,21.6243823 149.51901,22.9649656 149.51901,25.5015391 C149.51901,27.6270555 151.154648,29 153.68574,29 C156.326017,29 157.524918,27.5113811 157.84609,27.0197651 L157.938259,27.018388 L158.038935,28.7142568 L161.947594,28.7142568 L161.947594,26.5288376 L160.621784,26.5288376 L160.621784,20.9950587 C160.621784,17.8236533 158.68837,16.2159174 154.874716,16.2159174 C152.593188,16.2159174 150.565478,17.2218712 150.132286,17.4518429 L150.132286,20.4256379 L152.823609,20.4256379 L152.823609,18.7944917 Z M162.425453,18.6870798 L164.166022,18.6870798 L164.166022,25.6117051 C164.166022,27.7021061 165.713037,29 168.202298,29 C169.424596,29 170.578122,28.7190765 170.901421,28.6336979 L170.901421,26.5081814 C170.312251,26.6169704 169.840773,26.6720535 169.498331,26.6720535 C167.951316,26.6720535 167.348675,26.0234508 167.348675,24.3585662 L167.348675,18.6870798 L170.782311,18.6870798 L170.782311,16.5016606 L167.348675,16.5016606 L167.348675,13.8342649 L164.166022,13.8342649 L164.166022,16.5016606 L162.425453,16.5016606 L162.425453,18.6870798 Z M175.068152,23.2362495 L184,23.2362495 C183.961006,18.7717699 181.750377,16.2159174 177.921125,16.2159174 C174.079111,16.2159174 171.59694,18.7483597 171.59694,22.6675172 C171.59694,24.1533819 172.095359,29 178.510295,29 C181.135683,29 182.552953,28.4732685 183.118017,28.2536249 L183.118017,25.9435804 C182.477091,26.1983394 181.216508,26.6720535 179.270332,26.6720535 C176.782488,26.6720535 175.169537,25.2763872 175.068152,23.2362495 L175.068152,23.2362495 Z" id="Fill-6" fill="#FFFFFE"></path>
            </g>
        </g>
    </g>
</svg>