<?xml version="1.0" encoding="utf-8"?>
<!-- Generator: Adobe Illustrator 19.0.1, SVG Export Plug-In . SVG Version: 6.00 Build 0)  -->
<!DOCTYPE svg PUBLIC "-//W3C//DTD SVG 1.1//EN" "http://www.w3.org/Graphics/SVG/1.1/DTD/svg11.dtd">
<svg version="1.1" id="Layer_1" xmlns="http://www.w3.org/2000/svg" xmlns:xlink="http://www.w3.org/1999/xlink" x="0px" y="0px"
	 width="124.7px" height="66.5px" viewBox="0 0 124.7 66.5" style="enable-background:new 0 0 124.7 66.5;" xml:space="preserve">
<style type="text/css">
	.st0{fill:#17233F;}
	.st1{fill:#243878;}
	.st2{fill:#3876BB;}
</style>
<g>
	<g>
		<path class="st1" d="M61.9,37.8c0,0.8,0,1.5,0.1,1.9c0.1,0.5,0.2,0.9,0.4,1.2c0.2,0.3,0.4,0.5,0.8,0.7c0.3,0.2,0.8,0.3,1.5,0.5v1
			h-9.1v-1c0.9-0.2,1.4-0.5,1.7-0.7c0.3-0.3,0.5-0.7,0.6-1.2c0.1-0.5,0.1-1.3,0.1-2.3V19.9c0-1,0-1.6-0.1-2.1
			c-0.1-0.4-0.2-0.8-0.3-1c-0.2-0.2-0.4-0.4-0.6-0.6c-0.3-0.1-0.7-0.3-1.3-0.5v-1h10.3c3.2,0,5.6,0.6,7.2,1.9
			c1.6,1.2,2.4,3.1,2.4,5.7c0,1.4-0.2,2.7-0.7,3.9c-0.5,1.1-1.2,2.1-2.1,2.8c-0.9,0.7-2,1.3-3.2,1.6c-1.2,0.3-2.6,0.5-3.9,0.5
			c-1.5,0-2.7,0-3.6-0.1V37.8z M61.9,29.2h2.4c1.6,0,2.9-0.2,3.9-0.6c1-0.4,1.8-1.1,2.3-2c0.5-0.9,0.8-2.2,0.8-3.8
			c0-1.2-0.2-2.2-0.5-3c-0.3-0.8-0.8-1.4-1.3-1.9c-0.6-0.5-1.2-0.8-2-1c-0.8-0.2-1.6-0.3-2.5-0.3c-1.4,0-2.4,0-3.1,0.1V29.2z"/>
	</g>
	<g>
		<g>
			<path class="st2" d="M87.6,44.7c0,1.5,0.1,2.6,0.2,3.5c0.1,0.9,0.4,1.6,0.7,2.1c0.3,0.5,0.7,0.9,1.2,1.2c0.5,0.3,1.3,0.6,2.4,0.8
				v1.8H77.5v-1.8c1.4-0.4,2.3-0.8,2.8-1.3c0.5-0.5,0.8-1.2,0.9-2.1c0.1-0.9,0.2-2.3,0.2-4.1V12.6c0-1.7-0.1-3-0.2-3.7
				c-0.1-0.8-0.3-1.4-0.5-1.8c-0.3-0.4-0.6-0.8-1-1c-0.4-0.3-1.1-0.6-2.2-0.9V3.3H94c5.2,0,9.1,1.1,11.6,3.3
				c2.5,2.2,3.8,5.6,3.8,10.2c0,2.6-0.4,4.9-1.2,7c-0.8,2.1-1.9,3.8-3.4,5.1c-1.5,1.3-3.2,2.3-5.2,2.8c-2,0.6-4.1,0.9-6.3,0.9
				c-2.5,0-4.4,0-5.7-0.1V44.7z M87.6,29.2h3.9c2.5,0,4.6-0.4,6.2-1.1c1.6-0.7,2.9-2,3.7-3.7c0.9-1.7,1.3-4,1.3-6.8
				c0-2.1-0.3-3.9-0.8-5.3c-0.5-1.4-1.2-2.6-2.1-3.4c-0.9-0.9-2-1.5-3.2-1.8c-1.2-0.4-2.6-0.5-4.1-0.5c-2.2,0-3.8,0-5,0.1V29.2z"/>
		</g>
	</g>
	<g>
		<path class="st1" d="M121.6,33.9c0,2.4-0.3,4.3-0.8,5.7c-0.5,1.5-1.5,2.7-2.8,3.7c-1.3,1-3.1,1.9-5.5,2.6l-0.9-2.3
			c1.5-0.6,2.6-1.2,3.3-1.8c0.6-0.6,1.1-1.4,1.3-2.3c0.3-0.9,0.4-2.1,0.4-3.7V6.5c0-1.5-0.1-2.6-0.2-3.1c-0.1-0.6-0.4-1-0.7-1.3
			c-0.3-0.3-1-0.6-2.1-0.9V0h11v1.3c-0.8,0.2-1.3,0.4-1.7,0.6c-0.3,0.2-0.6,0.4-0.8,0.7c-0.2,0.3-0.3,0.7-0.4,1.3
			c-0.1,0.6-0.1,1.5-0.1,2.7V33.9z"/>
	</g>
	<path class="st2" d="M0,60.2c17-2,28.2-9.7,64.6-1.3c0,0,25.4,7.6,59.7-1.8c0,0-15.4,16.3-59.1,6C65.2,63.1,40.1,55.4,0,60.2z"/>
</g>
</svg>
